<svg width="40" height="40" viewBox="0 0 40 40" fill="none" xmlns="http://www.w3.org/2000/svg">
<path d="M29.9999 18.3333C29.9999 16.735 28.8666 15.3983 27.3649 15.0767C27.9649 14.075 28.3333 12.9167 28.3333 11.6667C28.3333 7.99 25.3433 5 21.6666 5C19.1383 5 16.9649 6.42833 15.8333 8.50667C14.7016 6.42833 12.5283 5 9.99992 5C6.32325 5 3.33325 7.99 3.33325 11.6667C3.33325 13.17 3.85325 14.545 4.69492 15.66C4.27423 15.9676 3.93179 16.3699 3.69525 16.8343C3.45871 17.2987 3.33471 17.8122 3.33325 18.3333V31.6667C3.33325 33.505 4.82825 35 6.66659 35H26.6666C28.5049 35 29.9999 33.505 29.9999 31.6667V27.27L36.6666 30.6033V18.9367L29.9999 22.27V18.3333ZM21.6666 8.33333C23.5049 8.33333 24.9999 9.82833 24.9999 11.6667C24.9999 13.505 23.5049 15 21.6666 15C19.8283 15 18.3333 13.505 18.3333 11.6667C18.3333 9.82833 19.8283 8.33333 21.6666 8.33333ZM9.99992 8.33333C11.8383 8.33333 13.3333 9.82833 13.3333 11.6667C13.3333 13.505 11.8383 15 9.99992 15C8.16159 15 6.66659 13.505 6.66659 11.6667C6.66659 9.82833 8.16159 8.33333 9.99992 8.33333ZM6.66659 31.6667V18.3333H26.6666L26.6699 31.6667H6.66659Z" fill="#247BA0"/>
</svg>
