<svg width="40" height="40" viewBox="0 0 40 40" fill="none" xmlns="http://www.w3.org/2000/svg">
<path d="M31.576 14.8987C32.9947 14.898 34.3834 15.304 35.5753 16.0678C36.7672 16.8317 37.7117 17.9209 38.2952 19.2048C38.8787 20.4886 39.0765 21.9124 38.8648 23.3051C38.6531 24.6978 38.0409 26.0002 37.1017 27.0559V35.4678C37.1022 35.7026 37.042 35.9336 36.9267 36.1387C36.8115 36.3438 36.6452 36.516 36.4437 36.639C36.2422 36.7619 36.0123 36.8315 35.776 36.841C35.5397 36.8504 35.3049 36.7995 35.094 36.693L34.9283 36.5925L31.576 34.2664L28.2237 36.5925C28.0301 36.7267 27.8051 36.8094 27.5701 36.8327C27.3352 36.856 27.0981 36.8191 26.8816 36.7256C26.6651 36.632 26.4763 36.4849 26.3334 36.2984C26.1904 36.1118 26.098 35.892 26.0649 35.6598L26.0521 35.4678V27.0522C25.1142 25.9965 24.503 24.6946 24.2919 23.3027C24.0807 21.9108 24.2786 20.4879 24.8618 19.2048C25.445 17.9218 26.3886 16.833 27.5796 16.0692C28.7705 15.3054 30.1582 14.899 31.576 14.8987ZM34.3389 28.9979C33.461 29.3504 32.5229 29.531 31.576 29.5301C30.6291 29.531 29.6909 29.3504 28.8131 28.9979V32.8363L30.7858 31.4703C30.9877 31.3298 31.2239 31.2455 31.4697 31.2262C31.7156 31.2069 31.9621 31.2533 32.1838 31.3606L32.368 31.4703L34.3389 32.8363V28.9979ZM33.8784 2.10522C35.1683 2.10516 36.4096 2.59365 37.3491 3.47106C38.2887 4.34847 38.8557 5.54868 38.9345 6.8269L38.9437 7.13412L38.9455 16.7274C38.1985 15.7401 37.2589 14.9123 36.1826 14.2934L36.1808 7.13412C36.181 6.56822 35.9699 6.02233 35.5881 5.60211C35.2063 5.18188 34.6811 4.91718 34.1141 4.85923L33.8784 4.84826H7.17051C6.60051 4.848 6.05068 5.05766 5.62741 5.43668C5.20414 5.8157 4.93753 6.33712 4.87916 6.90005L4.86811 7.13412V24.5067C4.86811 25.6898 5.77433 26.6645 6.93474 26.7797L7.17051 26.7925L23.6041 26.7943L23.8307 27.1656L24.0775 27.524L24.2083 27.6959L24.2064 29.5356H7.17051C5.88034 29.5356 4.63877 29.0468 3.69918 28.1691C2.75959 27.2913 2.19278 26.0906 2.11443 24.812L2.10522 24.5067V7.13412C2.10516 5.85351 2.59719 4.62112 3.48094 3.68832C4.3647 2.75553 5.5736 2.1926 6.86107 2.11437L7.17051 2.10522H33.8784ZM31.576 17.6418C30.3545 17.6418 29.183 18.1235 28.3192 18.9811C27.4555 19.8386 26.9703 21.0017 26.9703 22.2144C26.9703 23.4271 27.4555 24.5902 28.3192 25.4477C29.183 26.3053 30.3545 26.787 31.576 26.787C32.7975 26.787 33.969 26.3053 34.8327 25.4477C35.6965 24.5902 36.1817 23.4271 36.1817 22.2144C36.1817 21.0017 35.6965 19.8386 34.8327 18.9811C33.969 18.1235 32.7975 17.6418 31.576 17.6418ZM19.143 19.4705C19.493 19.4706 19.8299 19.6026 20.0857 19.8398C20.3414 20.077 20.497 20.4018 20.5208 20.7485C20.5447 21.0952 20.4351 21.4379 20.2142 21.7075C19.9933 21.977 19.6776 22.1533 19.3309 22.2007L19.143 22.2135H10.8544C10.5043 22.2134 10.1674 22.0814 9.91167 21.8441C9.65592 21.6069 9.50041 21.2821 9.47655 20.9354C9.45269 20.5888 9.56227 20.246 9.78315 19.9765C10.004 19.7069 10.3197 19.5306 10.6665 19.4833L10.8544 19.4705H19.143ZM30.1945 9.41266C30.5445 9.41277 30.8815 9.54478 31.1372 9.78201C31.393 10.0192 31.5485 10.344 31.5723 10.6907C31.5962 11.0374 31.4866 11.3801 31.2657 11.6497C31.0449 11.9193 30.7292 12.0955 30.3824 12.1429L30.1945 12.1557H10.8544C10.5043 12.1556 10.1674 12.0236 9.91167 11.7864C9.65592 11.5491 9.50041 11.2243 9.47655 10.8777C9.45269 10.531 9.56227 10.1882 9.78315 9.91866C10.004 9.6491 10.3197 9.47283 10.6665 9.42546L10.8544 9.41266H30.1945Z" fill="#247BA0"/>
</svg>
