<svg width="40" height="42" viewBox="0 0 40 42" fill="none" xmlns="http://www.w3.org/2000/svg">
<path d="M19.9833 3.42114C10.7833 3.42114 3.33325 11.0843 3.33325 20.5264C3.33325 29.9685 10.7833 37.6317 19.9833 37.6317C29.1999 37.6317 36.6666 29.9685 36.6666 20.5264C36.6666 11.0843 29.1999 3.42114 19.9833 3.42114ZM19.9999 34.2106C12.6333 34.2106 6.66659 28.0869 6.66659 20.5264C6.66659 12.9659 12.6333 6.8422 19.9999 6.8422C27.3666 6.8422 33.3333 12.9659 33.3333 20.5264C33.3333 28.0869 27.3666 34.2106 19.9999 34.2106Z" fill="#247BA0"/>
<path d="M20.8333 11.9736H18.3333V22.2368L27.0833 27.6249L28.3333 25.521L20.8333 20.9539V11.9736Z" fill="#247BA0"/>
</svg>
