<svg width="78" height="78" viewBox="0 0 78 78" fill="none" xmlns="http://www.w3.org/2000/svg">
<path d="M30.2576 21.8075C29.9563 22.1082 29.7173 22.4653 29.5542 22.8585C29.3911 23.2516 29.3071 23.6731 29.3071 24.0988C29.3071 24.5244 29.3911 24.9459 29.5542 25.339C29.7173 25.7322 29.9563 26.0893 30.2576 26.39L42.8676 39L30.2576 51.61C29.6499 52.2177 29.3085 53.0419 29.3085 53.9013C29.3085 54.7606 29.6499 55.5848 30.2576 56.1925C30.8652 56.8002 31.6894 57.1416 32.5488 57.1416C33.4082 57.1416 34.2324 56.8002 34.8401 56.1925L49.7576 41.275C50.0589 40.9743 50.2979 40.6172 50.461 40.224C50.6241 39.8309 50.708 39.4094 50.708 38.9838C50.708 38.5581 50.6241 38.1366 50.461 37.7435C50.2979 37.3503 50.0589 36.9932 49.7576 36.6925L34.8401 21.775C33.6051 20.54 31.5251 20.54 30.2576 21.8075Z" fill="white"/>
</svg>
