<svg width="78" height="78" viewBox="0 0 78 78" fill="none" xmlns="http://www.w3.org/2000/svg">
<path d="M47.7424 56.1925C48.0437 55.8918 48.2827 55.5347 48.4458 55.1415C48.6089 54.7484 48.6929 54.3269 48.6929 53.9012C48.6929 53.4756 48.6089 53.0541 48.4458 52.661C48.2827 52.2678 48.0437 51.9107 47.7424 51.61L35.1324 39L47.7424 26.39C48.3501 25.7823 48.6915 24.9581 48.6915 24.0987C48.6915 23.2394 48.3501 22.4152 47.7424 21.8075C47.1347 21.1998 46.3106 20.8584 45.4512 20.8584C44.5918 20.8584 43.7676 21.1998 43.1599 21.8075L28.2424 36.725C27.9411 37.0257 27.7021 37.3828 27.539 37.776C27.3759 38.1691 27.292 38.5906 27.292 39.0162C27.292 39.4419 27.3759 39.8634 27.539 40.2565C27.7021 40.6497 27.9411 41.0068 28.2424 41.3075L43.1599 56.225C44.3949 57.46 46.4749 57.46 47.7424 56.1925Z" fill="white"/>
</svg>
